<svg width="20" height="24" fill="none" xmlns="http://www.w3.org/2000/svg"><path d="M3 0h11.256l2.592 1.956H19.5v10.8h-2.4L12.48 20.1 10.944 24H6.84l-.384-4.5.948-3.456-.156-.276h-5.7L0 14.208v-2.4l.756-.744-.3-.3v-2.4l.756-.744-.288-.3v-2.4l.744-.744-.3-.312v-2.34L3 0Zm10.596 2.052H3.888l-.528.54v.876l1.812 1.836H3.456l-.528.54v.864l1.8 1.836H3l-.516.54v.864l1.8 1.836h-1.74l-.528.54v.876l.528.54h5.892l1.116 2.04-1.044 3.924.192 2.256h.876l1.116-2.856 5.244-8.4V4.02l-2.34-1.968Z" fill="#FF0B0B"/></svg>