<svg width="12" height="18" fill="none" xmlns="http://www.w3.org/2000/svg"><path d="M3.288 10.925a2.266 2.266 0 0 1-.225-.795V3.995a1.35 1.35 0 0 1 .12-.45L3.963.68a.975.975 0 0 1 1.02-.675h2.085A.945.945 0 0 1 8.073.68l.795 2.88c.055.145.09.296.105.45v6.135a1.995 1.995 0 0 1-.225.795l-.51.72a.87.87 0 0 1-.72.405h-3a.915.915 0 0 1-.72-.405l-.51-.735Zm6.93-3.435v2.475a3 3 0 0 1-.45 1.5l-.57.735a2.025 2.025 0 0 1-1.74.9H4.593a2.055 2.055 0 0 1-1.755-.9l-.555-.735a3 3 0 0 1-.45-1.5V7.49h-1.5v2.535c.021.836.27 1.65.72 2.355l.51.735a3.435 3.435 0 0 0 3 1.5h.78v1.245H2.478v1.5h7.14v-1.5H6.753v-1.245h.795a3.405 3.405 0 0 0 3-1.5l.51-.735a4.62 4.62 0 0 0 .735-2.355V7.49h-1.575Z" fill="#fff"/></svg>