<svg xmlns="http://www.w3.org/2000/svg" viewBox="0 0 112 32"><style>.st0{fill:#fff}</style><path d="M32 0v32H0V0h32zM15.8 7H9v18h7.2c1.2 0 2.5-.2 3.6-.6.9-.4 1.7-1 2.3-1.8.6-.8.9-1.8.8-2.8 0-1-.3-2-.9-2.8-.6-.8-1.5-1.4-2.4-1.7 1.4-.7 2.4-2.1 2.3-3.7.1-1.3-.5-2.6-1.6-3.4-1.3-.9-2.9-1.3-4.5-1.2zm.1 10.2c2.2 0 3.4.8 3.4 2.5 0 .7-.3 1.4-.9 1.8-.8.5-1.6.7-2.5.6h-3.2v-4.9h3.2zm-.5-7.3c1.9 0 2.9.7 2.9 2.1 0 .7-.2 1.3-.8 1.7-.6.5-1.4.7-2.2.6h-2.8V9.9h2.9zM72 0v32H40V0h32zM55.8 7H49v18h7.2c1.2 0 2.5-.2 3.7-.6.9-.4 1.7-1 2.3-1.8.6-.8.9-1.8.8-2.8 0-1-.3-2-.9-2.8-.6-.8-1.5-1.4-2.4-1.7 1.4-.7 2.4-2.1 2.3-3.7.1-1.3-.5-2.6-1.6-3.4-1.4-.9-3-1.3-4.6-1.2zm.1 10.2c2.2 0 3.3.8 3.3 2.5 0 .7-.3 1.4-.9 1.8-.8.5-1.6.7-2.5.6h-3.2v-4.9h3.3zm-.5-7.3c1.9 0 2.9.7 2.9 2.1 0 .7-.2 1.3-.8 1.7-.6.5-1.4.7-2.2.6h-2.8V9.9h2.9zM112 0v32H80V0h32zM97.5 6.8c-1.3 0-2.6.2-3.9.6-1.1.4-2.1 1-3 1.9-.8.8-1.5 1.8-1.9 2.9-.5 1.2-.7 2.5-.7 3.8 0 1.3.2 2.6.6 3.9.4 1.1 1 2.1 1.8 2.9.8.8 1.8 1.4 2.9 1.8a12.72 12.72 0 0 0 7 .2c.9-.2 1.8-.5 2.6-1v-3.4a9.3 9.3 0 0 1-5.2 1.5c-1.1 0-2.2-.2-3.1-.7-.8-.4-1.5-1.1-1.9-2-.5-1-.7-2.1-.7-3.2s.2-2.2.7-3.2c.4-.9 1.1-1.6 2-2 1-.5 2.1-.7 3.2-.7.9 0 1.7.1 2.6.4.8.2 1.6.6 2.3 1V8c-.8-.4-1.6-.7-2.5-.9-.9-.2-1.9-.3-2.8-.3z" class="st0"/></svg>
