<svg xmlns="http://www.w3.org/2000/svg" viewBox="0 0 140 40"><style>.st0{fill:#0a051e}</style><path d="M40 0v40H0V0h40zM19.7 8.8h-8.5v22.5h9c1.6 0 3.1-.2 4.6-.8a5.8 5.8 0 0 0 3.9-5.7c0-1.3-.3-2.5-1.1-3.5s-1.8-1.7-3-2.1c1.8-.8 2.9-2.6 2.9-4.6.1-1.7-.7-3.3-2-4.3a9.22 9.22 0 0 0-5.8-1.5zm.2 12.7c2.8 0 4.2 1 4.2 3.1 0 .9-.4 1.7-1.1 2.2-.9.6-2 .8-3.2.8h-4v-6.1h4.1zm-.6-9.1c2.4 0 3.6.9 3.6 2.7 0 .8-.3 1.6-.9 2.2-.8.6-1.7.8-2.7.8h-3.5v-5.6c0-.1 3.5-.1 3.5-.1zM90 0v40H50V0h40zM69.7 8.8h-8.5v22.5h9c1.6 0 3.1-.2 4.6-.8a6.06 6.06 0 0 0 4-5.7c0-1.3-.3-2.5-1.1-3.5s-1.8-1.7-3-2.1c1.8-.8 2.9-2.6 2.9-4.6.1-1.7-.7-3.3-2-4.3a9.68 9.68 0 0 0-5.9-1.5zm.2 12.7c2.8 0 4.2 1 4.2 3.1 0 .9-.4 1.7-1.1 2.2-.9.6-2 .8-3.2.8h-4v-6.1h4.1zm-.6-9.1c2.4 0 3.7.9 3.7 2.7 0 .8-.3 1.6-.9 2.2-.8.6-1.7.8-2.7.8H66v-5.6c-.2-.1 3.3-.1 3.3-.1zM140 0v40h-40V0h40zm-18.2 8.5c-1.7 0-3.3.2-4.9.8-1.4.5-2.7 1.3-3.8 2.3a10.82 10.82 0 0 0-3.2 8.3c0 1.6.2 3.3.8 4.8a9.67 9.67 0 0 0 6 5.9c1.6.5 3.2.8 4.9.8 1.3 0 2.6-.1 3.9-.5 1.1-.3 2.2-.7 3.2-1.3v-4.3c-1.9 1.2-4.2 1.8-6.4 1.8-1.4 0-2.7-.3-3.9-.9-1.1-.6-1.9-1.4-2.4-2.5-.6-1.2-.9-2.6-.8-4 0-1.4.3-2.7.9-4 .6-1.1 1.4-1.9 2.5-2.5 1.2-.6 2.6-.9 3.9-.9a10.17 10.17 0 0 1 6 1.7v-4c-1-.5-2-.9-3.1-1.1-1.2-.3-2.4-.4-3.6-.4z" class="st0"/></svg>
