<svg width="20" height="24" fill="none" xmlns="http://www.w3.org/2000/svg"><path d="M16.5 24H5.244l-2.592-1.956H0v-10.8h2.4L7.02 3.9 8.556 0h4.104l.384 4.5-.948 3.456.156.276h5.7l1.548 1.56v2.4l-.756.744.3.3v2.4l-.756.744.288.3v2.4l-.744.744.3.312v2.34L16.5 24ZM5.904 21.948h9.708l.528-.54v-.876l-1.812-1.836h1.716l.528-.54v-.864l-1.8-1.836H16.5l.516-.54v-.864l-1.8-1.836h1.74l.528-.54V10.8l-.528-.54h-5.892L9.948 8.22l1.044-3.924L10.8 2.04h-.876L8.808 4.896l-5.244 8.4v6.684l2.34 1.968Z" fill="#FF0B0B"/></svg>